<svg width="18" height="20" viewBox="0 0 18 20" fill="none" xmlns="http://www.w3.org/2000/svg">
<path id="Vector" d="M17.3522 12.4778L15.525 10.6546V8.23938C15.5229 6.57029 14.9006 4.96127 13.7785 3.72343C12.6564 2.4856 11.1142 1.70688 9.45 1.53788V0.157166H8.1V1.53788C6.43584 1.70688 4.89359 2.4856 3.77147 3.72343C2.64936 4.96127 2.02709 6.57029 2.025 8.23938V10.6546L0.197775 12.4778C0.0711792 12.6041 3.82302e-05 12.7754 0 12.954V14.9746C0 15.1532 0.0711158 15.3245 0.197703 15.4508C0.32429 15.5771 0.495979 15.6481 0.675 15.6481H5.4V16.3216C5.4 17.2147 5.75558 18.0713 6.38851 18.7028C7.02145 19.3344 7.87989 19.6892 8.775 19.6892C9.6701 19.6892 10.5285 19.3344 11.1615 18.7028C11.7944 18.0713 12.15 17.2147 12.15 16.3216V15.6481H16.875C17.054 15.6481 17.2257 15.5771 17.3523 15.4508C17.4789 15.3245 17.55 15.1532 17.55 14.9746V12.954C17.55 12.7754 17.4788 12.6041 17.3522 12.4778ZM10.8 16.3216C10.8 16.8575 10.5867 17.3714 10.2069 17.7503C9.82713 18.1293 9.31206 18.3421 8.775 18.3421C8.23794 18.3421 7.72287 18.1293 7.34311 17.7503C6.96335 17.3714 6.75 16.8575 6.75 16.3216V15.6481H10.8V16.3216Z" fill="#F04C43"/>
</svg>
